<svg width="344" height="201" viewBox="0 0 344 201" fill="none" xmlns="http://www.w3.org/2000/svg">
<rect width="344" height="201" fill="#0D0D0D"/>
<g clip-path="url(#clip0_2324_3517)">
<path d="M143.403 76.7179V88.9975H112.481V76.7179H143.403ZM118.47 65.4207H135.337V108.706C135.337 109.361 135.449 109.914 135.673 110.364C135.897 110.794 136.243 111.121 136.712 111.346C137.18 111.551 137.781 111.653 138.515 111.653C139.024 111.653 139.614 111.592 140.287 111.469C140.979 111.346 141.489 111.244 141.814 111.162L144.259 123.073C143.505 123.298 142.426 123.575 141.02 123.902C139.635 124.23 137.985 124.445 136.07 124.547C132.2 124.752 128.951 124.352 126.323 123.35C123.695 122.326 121.719 120.72 120.395 118.53C119.071 116.34 118.43 113.598 118.47 110.303V65.4207Z" fill="#4EA8DE"/>
<path d="M172.393 124.731C167.3 124.731 162.941 123.718 159.315 121.692C155.689 119.645 152.909 116.801 150.973 113.158C149.038 109.494 148.071 105.247 148.071 100.418C148.071 95.5875 149.038 91.3511 150.973 87.7081C152.909 84.0447 155.689 81.1999 159.315 79.1738C162.941 77.1272 167.3 76.1039 172.393 76.1039C177.485 76.1039 181.844 77.1272 185.47 79.1738C189.096 81.1999 191.877 84.0447 193.812 87.7081C195.747 91.3511 196.715 95.5875 196.715 100.418C196.715 105.247 195.747 109.494 193.812 113.158C191.877 116.801 189.096 119.645 185.47 121.692C181.844 123.718 177.485 124.731 172.393 124.731ZM172.515 112.206C173.941 112.206 175.173 111.725 176.212 110.763C177.251 109.801 178.056 108.43 178.626 106.649C179.196 104.869 179.481 102.751 179.481 100.295C179.481 97.8183 179.196 95.7001 178.626 93.94C178.056 92.1595 177.251 90.7883 176.212 89.8263C175.173 88.8644 173.941 88.3835 172.515 88.3835C171.007 88.3835 169.714 88.8644 168.634 89.8263C167.555 90.7883 166.73 92.1595 166.159 93.94C165.589 95.7001 165.304 97.8183 165.304 100.295C165.304 102.751 165.589 104.869 166.159 106.649C166.73 108.43 167.555 109.801 168.634 110.763C169.714 111.725 171.007 112.206 172.515 112.206Z" fill="#4EA8DE"/>
<path d="M220.598 124.486C217.257 124.486 214.182 123.605 211.371 121.845C208.58 120.085 206.339 117.415 204.648 113.833C202.978 110.251 202.143 105.739 202.143 100.295C202.143 94.6052 203.019 89.9799 204.771 86.4188C206.543 82.8577 208.824 80.2483 211.615 78.5905C214.426 76.9328 217.38 76.1039 220.476 76.1039C222.798 76.1039 224.835 76.5132 226.587 77.3319C228.339 78.13 229.805 79.2045 230.987 80.5553C232.168 81.8856 233.065 83.3489 233.676 84.9452H233.92V61H250.787V123.872H234.042V116.135H233.676C233.024 117.732 232.087 119.164 230.865 120.433C229.663 121.682 228.196 122.674 226.465 123.411C224.754 124.127 222.798 124.486 220.598 124.486ZM226.831 111.469C228.38 111.469 229.704 111.019 230.804 110.118C231.924 109.197 232.78 107.908 233.37 106.25C233.981 104.572 234.287 102.587 234.287 100.295C234.287 97.9616 233.981 95.9662 233.37 94.3084C232.78 92.6302 231.924 91.3511 230.804 90.471C229.704 89.5705 228.38 89.1203 226.831 89.1203C225.283 89.1203 223.959 89.5705 222.859 90.471C221.78 91.3511 220.944 92.6302 220.354 94.3084C219.783 95.9662 219.498 97.9616 219.498 100.295C219.498 102.628 219.783 104.634 220.354 106.312C220.944 107.969 221.78 109.249 222.859 110.149C223.959 111.029 225.283 111.469 226.831 111.469Z" fill="#5E60CE"/>
<path d="M281.678 124.731C276.586 124.731 272.226 123.718 268.6 121.692C264.975 119.645 262.194 116.801 260.259 113.158C258.324 109.494 257.356 105.247 257.356 100.418C257.356 95.5875 258.324 91.3511 260.259 87.7081C262.194 84.0447 264.975 81.1999 268.6 79.1738C272.226 77.1272 276.586 76.1039 281.678 76.1039C286.771 76.1039 291.13 77.1272 294.756 79.1738C298.382 81.1999 301.162 84.0447 303.097 87.7081C305.032 91.3511 306 95.5875 306 100.418C306 105.247 305.032 109.494 303.097 113.158C301.162 116.801 298.382 119.645 294.756 121.692C291.13 123.718 286.771 124.731 281.678 124.731ZM281.8 112.206C283.226 112.206 284.459 111.725 285.498 110.763C286.536 109.801 287.341 108.43 287.911 106.649C288.482 104.869 288.767 102.751 288.767 100.295C288.767 97.8183 288.482 95.7001 287.911 93.94C287.341 92.1595 286.536 90.7883 285.498 89.8264C284.459 88.8645 283.226 88.3835 281.8 88.3835C280.293 88.3835 278.999 88.8645 277.92 89.8264C276.84 90.7883 276.015 92.1595 275.445 93.94C274.874 95.7001 274.589 97.8183 274.589 100.295C274.589 102.751 274.874 104.869 275.445 106.649C276.015 108.43 276.84 109.801 277.92 110.763C278.999 111.725 280.293 112.206 281.8 112.206Z" fill="#5E60CE"/>
<g clip-path="url(#clip1_2324_3517)">
<path d="M61.7081 67.5353C68.4318 76.1112 72.0209 86.6866 71.8908 97.5383V100.129L74.1091 101.485C76.9753 103.228 79.1129 105.932 80.1324 109.104C79.2373 108.442 78.3009 107.836 77.3287 107.29L71.4132 103.953L70.3503 110.688C70.2582 111.284 70.1348 111.874 69.9806 112.456H53.4049C53.1584 111.694 52.9581 110.932 52.7733 110.14L51.433 104.045L45.9797 107.092C45.0686 107.604 44.189 108.169 43.3455 108.784C44.3848 105.649 46.4778 102.96 49.2764 101.165L51.3868 99.8087V97.4012C51.4249 86.5935 55.0573 76.0985 61.7235 67.5353H61.7081ZM61.7235 61.1965C61.3778 61.1973 61.0441 61.3218 60.7838 61.5469L60.6452 61.6688C51.762 71.496 46.8293 84.2035 46.7808 97.3859C43.0112 99.8051 40.2208 103.457 38.8974 107.705C37.574 111.953 37.8016 116.525 39.5404 120.623C41.3722 116.622 44.4344 113.294 48.2904 111.115C48.6772 112.772 49.1922 114.397 49.8309 115.976C49.9119 116.279 50.0915 116.548 50.342 116.741C50.5925 116.934 50.9 117.04 51.2174 117.043H72.5994C73.0308 117.043 73.4621 116.631 73.6778 115.991C74.3012 114.49 74.7358 112.919 74.9718 111.313C78.8352 113.483 81.8998 116.813 83.7218 120.821C85.5656 116.743 85.851 112.142 84.5252 107.871C83.1994 103.601 80.3523 99.951 76.5123 97.5993C76.6646 84.339 71.758 71.5093 62.7711 61.6688C62.6372 61.5208 62.4735 61.4023 62.2903 61.3209C62.1072 61.2396 61.9089 61.1972 61.7081 61.1965H61.7235Z" fill="#4EA8DE"/>
<path d="M61.7082 96.1212C60.5249 96.1212 59.3682 95.7747 58.3838 95.1253C57.3993 94.476 56.6312 93.553 56.1764 92.4725C55.7215 91.3921 55.6001 90.2026 55.8276 89.0541C56.0551 87.9055 56.6213 86.8493 57.4547 86.0185C58.2882 85.1878 59.3516 84.6197 60.511 84.3858C61.6704 84.152 62.8738 84.2629 63.9696 84.7045C65.0653 85.1461 66.0044 85.8987 66.6684 86.8675C67.3324 87.8362 67.6916 88.9777 67.7007 90.148V90.148C67.7191 90.9065 67.5863 91.6611 67.3098 92.3687C67.0333 93.0764 66.6185 93.7232 66.0892 94.2723C65.5598 94.8213 64.9263 95.2618 64.2249 95.5686C63.5234 95.8754 62.7676 96.0425 62.0009 96.0603C61.9039 96.0756 61.8051 96.0756 61.7082 96.0603V96.1212Z" fill="#4EA8DE"/>
<path d="M70.0423 120.837C69.6568 120.824 69.2728 120.889 68.9127 121.025C68.5526 121.162 68.2237 121.368 67.9454 121.632C67.667 121.896 67.4447 122.212 67.2916 122.562C67.1385 122.913 67.0576 123.289 67.0537 123.671V132.661C67.0537 133.445 67.3686 134.197 67.929 134.751C68.4895 135.306 69.2497 135.617 70.0423 135.617C70.8349 135.617 71.595 135.306 72.1555 134.751C72.716 134.197 73.0308 133.445 73.0308 132.661V123.793C73.0431 123.413 72.9789 123.034 72.8417 122.679C72.7046 122.324 72.4974 121.999 72.2321 121.724C71.9668 121.449 71.6489 121.229 71.2967 121.076C70.9445 120.924 70.5652 120.843 70.1809 120.837H70.0423Z" fill="#5E60CE"/>
<path d="M53.405 120.837C53.013 120.816 52.6208 120.874 52.2518 121.006C51.8828 121.139 51.5445 121.343 51.2571 121.608C50.9696 121.872 50.7389 122.191 50.5786 122.546C50.4183 122.9 50.3317 123.283 50.324 123.671V132.661C50.324 133.445 50.6388 134.197 51.1993 134.751C51.7598 135.306 52.5199 135.617 53.3125 135.617C54.1051 135.617 54.8653 135.306 55.4258 134.751C55.9862 134.197 56.3011 133.445 56.3011 132.661V123.793C56.3134 123.413 56.2491 123.034 56.112 122.679C55.9749 122.324 55.7676 121.999 55.5024 121.724C55.2371 121.449 54.9191 121.229 54.567 121.076C54.2148 120.924 53.8355 120.843 53.4512 120.837H53.405Z" fill="#5E60CE"/>
<path d="M61.4925 120.837C61.1081 120.829 60.7258 120.896 60.3676 121.034C60.0093 121.172 59.6821 121.378 59.4046 121.641C59.127 121.905 58.9047 122.219 58.7501 122.568C58.5956 122.916 58.5119 123.291 58.5039 123.671V136.059C58.5039 136.843 58.8188 137.595 59.3792 138.149C59.9397 138.704 60.6998 139.015 61.4925 139.015C62.2851 139.015 63.0452 138.704 63.6057 138.149C64.1662 137.595 64.481 136.843 64.481 136.059V123.869C64.4933 123.489 64.429 123.11 64.2919 122.755C64.1548 122.4 63.9476 122.075 63.6823 121.8C63.417 121.525 63.099 121.305 62.7469 121.153C62.3947 121 62.0154 120.919 61.6311 120.913L61.4925 120.837Z" fill="#5E60CE"/>
</g>
</g>
<defs>
<clipPath id="clip0_2324_3517">
<rect width="268" height="78" fill="white" transform="translate(38 61)"/>
</clipPath>
<clipPath id="clip1_2324_3517">
<rect width="47.324" height="77.8035" fill="white" transform="translate(38 61.1965)"/>
</clipPath>
</defs>
</svg>
